<?xml version="1.0" standalone="no"?>
<!DOCTYPE svg PUBLIC "-//W3C//DTD SVG 20010904//EN"
 "http://www.w3.org/TR/2001/REC-SVG-20010904/DTD/svg10.dtd">
<svg version="1.0" xmlns="http://www.w3.org/2000/svg"
 width="512.000000pt" height="512.000000pt" viewBox="0 0 512.000000 512.000000"
 preserveAspectRatio="xMidYMid meet">
<metadata>
Created by potrace 1.14, written by Peter Selinger 2001-2017
</metadata>
<g transform="translate(0.000000,512.000000) scale(0.100000,-0.100000)"
fill="#000000" stroke="none">
<path d="M2249 5116 c-2 -2 -35 -6 -74 -10 -67 -6 -98 -10 -155 -21 -14 -3
-38 -8 -55 -11 -133 -23 -322 -87 -473 -159 -162 -78 -264 -141 -407 -252
-154 -120 -349 -332 -441 -478 -10 -16 -21 -32 -24 -35 -26 -25 -144 -250
-193 -370 -61 -150 -115 -341 -132 -475 -4 -27 -9 -52 -10 -55 -6 -11 -19
-204 -19 -285 1 -167 16 -301 59 -508 16 -81 93 -287 149 -402 101 -210 218
-378 394 -570 21 -22 107 -116 192 -210 85 -93 178 -195 206 -225 28 -30 107
-116 175 -190 67 -74 162 -178 210 -230 48 -52 96 -104 106 -116 42 -49 213
-233 268 -289 155 -156 336 -228 560 -221 169 5 282 43 421 141 56 40 114 100
366 376 12 14 66 72 118 129 52 56 100 108 105 114 13 14 226 247 240 262 36
40 194 212 210 230 11 12 61 66 110 120 50 54 99 108 110 120 289 316 466 652
549 1044 50 239 54 534 11 785 -144 834 -759 1515 -1555 1724 -210 55 -293 63
-671 67 -190 2 -348 2 -350 0z"/>
</g>
</svg>
